<svg xmlns="http://www.w3.org/2000/svg" viewBox="0 0 260 148" width="260" height="148">
  <rect width="260" height="148" rx="12" fill="#6fa8c9"/>
  <rect x="85" y="4" width="16" height="16" rx="2.5" fill="#fff" stroke="#c4c7ca"/><rect x="103.5" y="4" width="16" height="16" rx="2.5" fill="#f0c400" stroke="#f0c400"/><text x="111.5" y="14.879999999999999" text-anchor="middle" font-size="8" font-weight="700" font-family="DM Sans, system-ui, sans-serif" fill="#000">A</text><rect x="122" y="4" width="16" height="16" rx="2.5" fill="#f0c400" stroke="#f0c400"/><rect x="140.5" y="4" width="16" height="16" rx="2.5" fill="#f0c400" stroke="#f0c400"/><rect x="159" y="4" width="16" height="16" rx="2.5" fill="#fff" stroke="#c4c7ca"/><rect x="85" y="22.5" width="16" height="16" rx="2.5" fill="#fff" stroke="#c4c7ca"/><rect x="103.5" y="22.5" width="16" height="16" rx="2.5" fill="#f0c400" stroke="#f0c400"/><text x="111.5" y="33.38" text-anchor="middle" font-size="8" font-weight="700" font-family="DM Sans, system-ui, sans-serif" fill="#000">R</text><rect x="122" y="22.5" width="16" height="16" rx="2.5" fill="#fff" stroke="#c4c7ca"/><rect x="140.5" y="22.5" width="16" height="16" rx="2.5" fill="#fff" stroke="#c4c7ca"/><rect x="159" y="22.5" width="16" height="16" rx="2.5" fill="#fff" stroke="#c4c7ca"/><rect x="85" y="41" width="16" height="16" rx="2.5" fill="#fff" stroke="#c4c7ca"/><rect x="103.5" y="41" width="16" height="16" rx="2.5" fill="#fff" stroke="#c4c7ca"/><rect x="122" y="41" width="16" height="16" rx="2.5" fill="#fff" stroke="#c4c7ca"/><rect x="140.5" y="41" width="16" height="16" rx="2.5" fill="#fff" stroke="#c4c7ca"/><rect x="159" y="41" width="16" height="16" rx="2.5" fill="#fff" stroke="#c4c7ca"/><rect x="85" y="59.5" width="16" height="16" rx="2.5" fill="#fff" stroke="#c4c7ca"/><rect x="103.5" y="59.5" width="16" height="16" rx="2.5" fill="#fff" stroke="#c4c7ca"/><rect x="122" y="59.5" width="16" height="16" rx="2.5" fill="#fff" stroke="#c4c7ca"/><rect x="140.5" y="59.5" width="16" height="16" rx="2.5" fill="#fff" stroke="#c4c7ca"/><rect x="159" y="59.5" width="16" height="16" rx="2.5" fill="#fff" stroke="#c4c7ca"/><rect x="85" y="78" width="16" height="16" rx="2.5" fill="#fff" stroke="#c4c7ca"/><rect x="103.5" y="78" width="16" height="16" rx="2.5" fill="#fff" stroke="#c4c7ca"/><rect x="122" y="78" width="16" height="16" rx="2.5" fill="#fff" stroke="#c4c7ca"/><rect x="140.5" y="78" width="16" height="16" rx="2.5" fill="#fff" stroke="#c4c7ca"/><rect x="159" y="78" width="16" height="16" rx="2.5" fill="#fff" stroke="#c4c7ca"/><rect x="85" y="106.5" width="16" height="16" rx="2.5" fill="#787c7e" stroke="#787c7e"/><text x="93" y="117.38" text-anchor="middle" font-size="8" font-weight="700" font-family="DM Sans, system-ui, sans-serif" fill="#fff">C</text><rect x="103.5" y="106.5" width="16" height="16" rx="2.5" fill="#f0c400" stroke="#f0c400"/><text x="111.5" y="117.38" text-anchor="middle" font-size="8" font-weight="700" font-family="DM Sans, system-ui, sans-serif" fill="#000">R</text><rect x="122" y="106.5" width="16" height="16" rx="2.5" fill="#f0c400" stroke="#f0c400"/><text x="130" y="117.38" text-anchor="middle" font-size="8" font-weight="700" font-family="DM Sans, system-ui, sans-serif" fill="#000">A</text><rect x="140.5" y="106.5" width="16" height="16" rx="2.5" fill="#787c7e" stroke="#787c7e"/><text x="148.5" y="117.38" text-anchor="middle" font-size="8" font-weight="700" font-family="DM Sans, system-ui, sans-serif" fill="#fff">S</text><rect x="159" y="106.5" width="16" height="16" rx="2.5" fill="#787c7e" stroke="#787c7e"/><text x="167" y="117.38" text-anchor="middle" font-size="8" font-weight="700" font-family="DM Sans, system-ui, sans-serif" fill="#fff">S</text><rect x="85" y="128.5" width="16" height="16" rx="2.5" fill="#fff" stroke="#c4c7ca"/><rect x="103.5" y="128.5" width="16" height="16" rx="2.5" fill="#fff" stroke="#c4c7ca"/><rect x="122" y="128.5" width="16" height="16" rx="2.5" fill="#fff" stroke="#c4c7ca"/><rect x="140.5" y="128.5" width="16" height="16" rx="2.5" fill="#fff" stroke="#c4c7ca"/><rect x="159" y="128.5" width="16" height="16" rx="2.5" fill="#fff" stroke="#c4c7ca"/>
  <text x="130" y="105.5" text-anchor="middle" font-size="12" fill="#14232b">↓</text>
</svg>
