<svg xmlns="http://www.w3.org/2000/svg" viewBox="0 0 260 110" width="260" height="110">
  <rect width="260" height="110" rx="12" fill="#6fa8c9"/>
  <rect x="10" y="10" width="34" height="14" rx="3" fill="#2d7a36"/><rect x="50" y="10" width="34" height="14" rx="3" fill="#2d7a36"/><rect x="90" y="10" width="34" height="14" rx="3" fill="#f0c400"/><rect x="130" y="10" width="34" height="14" rx="3" fill="#f0c400"/><rect x="170" y="10" width="34" height="14" rx="3" fill="#fff"/><rect x="210" y="10" width="34" height="14" rx="3" fill="#fff"/>
  <rect x="8" y="32" width="66" height="54" rx="6" fill="#fff"/><rect x="12" y="36" width="10" height="10" rx="2" fill="#787c7e" stroke="#787c7e"/><rect x="24" y="36" width="10" height="10" rx="2" fill="#787c7e" stroke="#787c7e"/><rect x="36" y="36" width="10" height="10" rx="2" fill="#f0c400" stroke="#f0c400"/><rect x="48" y="36" width="10" height="10" rx="2" fill="#f0c400" stroke="#f0c400"/><rect x="60" y="36" width="10" height="10" rx="2" fill="#2d7a36" stroke="#2d7a36"/><rect x="12" y="48" width="10" height="10" rx="2" fill="#fff" stroke="#c4c7ca"/><rect x="24" y="48" width="10" height="10" rx="2" fill="#fff" stroke="#c4c7ca"/><rect x="36" y="48" width="10" height="10" rx="2" fill="#fff" stroke="#c4c7ca"/><rect x="48" y="48" width="10" height="10" rx="2" fill="#fff" stroke="#c4c7ca"/><rect x="60" y="48" width="10" height="10" rx="2" fill="#fff" stroke="#c4c7ca"/><rect x="12" y="60" width="10" height="10" rx="2" fill="#fff" stroke="#c4c7ca"/><rect x="24" y="60" width="10" height="10" rx="2" fill="#fff" stroke="#c4c7ca"/><rect x="36" y="60" width="10" height="10" rx="2" fill="#fff" stroke="#c4c7ca"/><rect x="48" y="60" width="10" height="10" rx="2" fill="#fff" stroke="#c4c7ca"/><rect x="60" y="60" width="10" height="10" rx="2" fill="#fff" stroke="#c4c7ca"/><rect x="12" y="72" width="10" height="10" rx="2" fill="#fff" stroke="#c4c7ca"/><rect x="24" y="72" width="10" height="10" rx="2" fill="#fff" stroke="#c4c7ca"/><rect x="36" y="72" width="10" height="10" rx="2" fill="#fff" stroke="#c4c7ca"/><rect x="48" y="72" width="10" height="10" rx="2" fill="#fff" stroke="#c4c7ca"/><rect x="60" y="72" width="10" height="10" rx="2" fill="#fff" stroke="#c4c7ca"/><rect x="80" y="32" width="66" height="54" rx="6" fill="#fff"/><rect x="84" y="36" width="10" height="10" rx="2" fill="#787c7e" stroke="#787c7e"/><rect x="96" y="36" width="10" height="10" rx="2" fill="#787c7e" stroke="#787c7e"/><rect x="108" y="36" width="10" height="10" rx="2" fill="#f0c400" stroke="#f0c400"/><rect x="120" y="36" width="10" height="10" rx="2" fill="#f0c400" stroke="#f0c400"/><rect x="132" y="36" width="10" height="10" rx="2" fill="#2d7a36" stroke="#2d7a36"/><rect x="84" y="48" width="10" height="10" rx="2" fill="#fff" stroke="#c4c7ca"/><rect x="96" y="48" width="10" height="10" rx="2" fill="#fff" stroke="#c4c7ca"/><rect x="108" y="48" width="10" height="10" rx="2" fill="#fff" stroke="#c4c7ca"/><rect x="120" y="48" width="10" height="10" rx="2" fill="#fff" stroke="#c4c7ca"/><rect x="132" y="48" width="10" height="10" rx="2" fill="#fff" stroke="#c4c7ca"/><rect x="84" y="60" width="10" height="10" rx="2" fill="#fff" stroke="#c4c7ca"/><rect x="96" y="60" width="10" height="10" rx="2" fill="#fff" stroke="#c4c7ca"/><rect x="108" y="60" width="10" height="10" rx="2" fill="#fff" stroke="#c4c7ca"/><rect x="120" y="60" width="10" height="10" rx="2" fill="#fff" stroke="#c4c7ca"/><rect x="132" y="60" width="10" height="10" rx="2" fill="#fff" stroke="#c4c7ca"/><rect x="84" y="72" width="10" height="10" rx="2" fill="#fff" stroke="#c4c7ca"/><rect x="96" y="72" width="10" height="10" rx="2" fill="#fff" stroke="#c4c7ca"/><rect x="108" y="72" width="10" height="10" rx="2" fill="#fff" stroke="#c4c7ca"/><rect x="120" y="72" width="10" height="10" rx="2" fill="#fff" stroke="#c4c7ca"/><rect x="132" y="72" width="10" height="10" rx="2" fill="#fff" stroke="#c4c7ca"/><rect x="152" y="32" width="66" height="54" rx="6" fill="#fff"/><rect x="156" y="36" width="10" height="10" rx="2" fill="#787c7e" stroke="#787c7e"/><rect x="168" y="36" width="10" height="10" rx="2" fill="#787c7e" stroke="#787c7e"/><rect x="180" y="36" width="10" height="10" rx="2" fill="#f0c400" stroke="#f0c400"/><rect x="192" y="36" width="10" height="10" rx="2" fill="#f0c400" stroke="#f0c400"/><rect x="204" y="36" width="10" height="10" rx="2" fill="#2d7a36" stroke="#2d7a36"/><rect x="156" y="48" width="10" height="10" rx="2" fill="#fff" stroke="#c4c7ca"/><rect x="168" y="48" width="10" height="10" rx="2" fill="#fff" stroke="#c4c7ca"/><rect x="180" y="48" width="10" height="10" rx="2" fill="#fff" stroke="#c4c7ca"/><rect x="192" y="48" width="10" height="10" rx="2" fill="#fff" stroke="#c4c7ca"/><rect x="204" y="48" width="10" height="10" rx="2" fill="#fff" stroke="#c4c7ca"/><rect x="156" y="60" width="10" height="10" rx="2" fill="#fff" stroke="#c4c7ca"/><rect x="168" y="60" width="10" height="10" rx="2" fill="#fff" stroke="#c4c7ca"/><rect x="180" y="60" width="10" height="10" rx="2" fill="#fff" stroke="#c4c7ca"/><rect x="192" y="60" width="10" height="10" rx="2" fill="#fff" stroke="#c4c7ca"/><rect x="204" y="60" width="10" height="10" rx="2" fill="#fff" stroke="#c4c7ca"/><rect x="156" y="72" width="10" height="10" rx="2" fill="#fff" stroke="#c4c7ca"/><rect x="168" y="72" width="10" height="10" rx="2" fill="#fff" stroke="#c4c7ca"/><rect x="180" y="72" width="10" height="10" rx="2" fill="#fff" stroke="#c4c7ca"/><rect x="192" y="72" width="10" height="10" rx="2" fill="#fff" stroke="#c4c7ca"/><rect x="204" y="72" width="10" height="10" rx="2" fill="#fff" stroke="#c4c7ca"/>
</svg>
